<?xml version="1.0" encoding="UTF-8" standalone="no"?>
<!-- Created with Inkscape (http://www.inkscape.org/) -->

<svg
   xmlns:dc="http://purl.org/dc/elements/1.1/"
   xmlns:cc="http://creativecommons.org/ns#"
   xmlns:rdf="http://www.w3.org/1999/02/22-rdf-syntax-ns#"
   xmlns:svg="http://www.w3.org/2000/svg"
   xmlns="http://www.w3.org/2000/svg"
   xmlns:sodipodi="http://sodipodi.sourceforge.net/DTD/sodipodi-0.dtd"
   xmlns:inkscape="http://www.inkscape.org/namespaces/inkscape"
   width="180mm"
   height="100mm"
   viewBox="0 0 180 100"
   version="1.1"
   id="svg8"
   inkscape:version="0.92.3 (2405546, 2018-03-11)"
   sodipodi:docname="drawing.svg">
  <defs
     id="defs2" />
  <sodipodi:namedview
     id="base"
     pagecolor="#ffffff"
     bordercolor="#666666"
     borderopacity="1.0"
     inkscape:pageopacity="0.0"
     inkscape:pageshadow="2"
     inkscape:zoom="0.98994949"
     inkscape:cx="493.22825"
     inkscape:cy="91.397168"
     inkscape:document-units="mm"
     inkscape:current-layer="layer1"
     showgrid="false"
     showguides="true"
     inkscape:guide-bbox="true"
     inkscape:snap-page="false"
     inkscape:snap-global="false"
     inkscape:window-width="1680"
     inkscape:window-height="998"
     inkscape:window-x="-8"
     inkscape:window-y="-8"
     inkscape:window-maximized="1">
    <sodipodi:guide
       position="0,20"
       orientation="0,1"
       id="guide3850"
       inkscape:locked="false"
       inkscape:label=""
       inkscape:color="rgb(0,0,255)" />
    <sodipodi:guide
       position="20,0"
       orientation="1,0"
       id="guide3852"
       inkscape:locked="false"
       inkscape:label=""
       inkscape:color="rgb(0,0,255)" />
    <sodipodi:guide
       position="180,17.386905"
       orientation="1,0"
       id="guide3893"
       inkscape:locked="false"
       inkscape:label=""
       inkscape:color="rgb(0,0,255)" />
    <sodipodi:guide
       position="45.357142,100"
       orientation="0,1"
       id="guide3895"
       inkscape:locked="false"
       inkscape:label=""
       inkscape:color="rgb(0,0,255)" />
    <sodipodi:guide
       position="58.964284,80"
       orientation="0,1"
       id="guide3897"
       inkscape:locked="false"
       inkscape:label=""
       inkscape:color="rgb(0,0,255)" />
    <sodipodi:guide
       position="160,-23.056548"
       orientation="1,0"
       id="guide3899"
       inkscape:locked="false"
       inkscape:label=""
       inkscape:color="rgb(0,0,255)" />
  </sodipodi:namedview>
  <metadata
     id="metadata5">
    <rdf:RDF>
      <cc:Work
         rdf:about="">
        <dc:format>image/svg+xml</dc:format>
        <dc:type
           rdf:resource="http://purl.org/dc/dcmitype/StillImage" />
        <dc:title></dc:title>
      </cc:Work>
    </rdf:RDF>
  </metadata>
  <g
     inkscape:label="Layer 1"
     inkscape:groupmode="layer"
     id="layer1"
     transform="translate(0,-197)">
    <g
       id="g3891"
       transform="translate(-0.46894557,199.10464)">
      <g
         transform="matrix(0.11300783,0,0,0.11300783,23.240267,19.285619)"
         id="g3828">
        <path
           style="fill:#ed9a00"
           inkscape:connector-curvature="0"
           d="m 65.796875,64.46875 h 59.546875 v 253.625 H 65.796875 Z m 0,0"
           id="path3721" />
        <path
           style="fill:#ed9a00"
           inkscape:connector-curvature="0"
           d="m 191.03906,0 v 30.808594 c 0,35.605468 -28.85937,64.460937 -64.46093,64.460937 H 95.769531 V 64.460938 C 95.769531,28.859375 124.62891,0 160.23437,0 Z m 0,0"
           id="path3723" />
        <path
           style="fill:#ffdf59"
           inkscape:connector-curvature="0"
           d="m 191.03906,0 v 30.808594 c 0,35.605468 -28.85937,64.460937 -64.46093,64.460937 h -1.23829 V 64.460938 C 125.33984,28.859375 154.19922,0 189.80078,0 Z m 0,0"
           id="path3725" />
        <path
           style="fill:#ed9a00"
           inkscape:connector-curvature="0"
           d="M 95.769531,64.46875 V 95.277344 H 64.960938 C 29.359375,95.277344 0.5,66.417969 0.5,30.8125 V 0.0078125 h 30.808594 c 35.601562,0 64.460937,28.8554685 64.460937,64.4609375 z m 0,0"
           id="path3727" />
        <path
           style="fill:#ffdf59"
           inkscape:connector-curvature="0"
           d="M 95.769531,64.46875 V 95.277344 H 93.4375 c -35.605469,0 -64.464844,-28.859375 -64.464844,-64.464844 V 0.0078125 h 2.335938 c 35.601562,0 64.460937,28.8554685 64.460937,64.4609375 z m 0,0"
           id="path3729" />
        <path
           style="fill:#ed9a00"
           inkscape:connector-curvature="0"
           d="m 95.769531,512 c -4.535156,0 -8.214843,-3.67578 -8.214843,-8.21484 V 348.23828 c 0,-4.53515 3.679687,-8.21484 8.214843,-8.21484 4.535159,0 8.214849,3.67969 8.214849,8.21484 v 155.54688 c 0,4.53906 -3.67579,8.21484 -8.214849,8.21484 z m 0,0"
           id="path3731" />
        <path
           style="fill:#ed9a00"
           inkscape:connector-curvature="0"
           d="m 191.03906,84.320312 v 30.808598 c 0,35.60546 -28.85937,64.46093 -64.46093,64.46093 H 95.769531 v -30.80468 c 0,-35.60547 28.859379,-64.464848 64.464839,-64.464848 z m 0,0"
           id="path3733" />
        <path
           style="fill:#ffdf59"
           inkscape:connector-curvature="0"
           d="m 191.03906,84.320312 v 30.808598 c 0,35.60546 -28.85937,64.46093 -64.46093,64.46093 h -1.23829 v -30.80468 c 0,-35.60547 28.85938,-64.464848 64.46485,-64.464848 z m 0,0"
           id="path3735" />
        <path
           style="fill:#ed9a00"
           inkscape:connector-curvature="0"
           d="m 95.769531,148.78906 v 30.8086 H 64.960938 C 29.359375,179.59766 0.5,150.73828 0.5,115.13281 V 84.328125 h 30.808594 c 35.601562,0 64.460937,28.859375 64.460937,64.460935 z m 0,0"
           id="path3737" />
        <path
           style="fill:#ffdf59"
           inkscape:connector-curvature="0"
           d="m 95.769531,148.78906 v 30.8086 H 93.4375 c -35.605469,0 -64.464844,-28.85938 -64.464844,-64.46485 V 84.328125 h 2.335938 c 35.601562,0 64.460937,28.859375 64.460937,64.460935 z m 0,0"
           id="path3739" />
        <path
           style="fill:#ed9a00"
           inkscape:connector-curvature="0"
           d="m 191.03906,168.64062 v 30.8086 c 0,35.60547 -28.85937,64.46094 -64.46093,64.46094 H 95.769531 v -30.80469 c 0,-35.60547 28.859379,-64.46484 64.464839,-64.46484 z m 0,0"
           id="path3741" />
        <path
           style="fill:#ffdf59"
           inkscape:connector-curvature="0"
           d="m 191.03906,168.64062 v 30.8086 c 0,35.60547 -28.85937,64.46094 -64.46093,64.46094 h -1.23829 v -30.80469 c 0,-35.60547 28.85938,-64.46484 64.46485,-64.46484 z m 0,0"
           id="path3743" />
        <path
           style="fill:#ed9a00"
           inkscape:connector-curvature="0"
           d="m 95.769531,233.10937 v 30.8086 H 64.960938 C 29.359375,263.91797 0.5,235.05859 0.5,199.45703 v -30.80859 h 30.808594 c 35.601562,0 64.460937,28.85937 64.460937,64.46093 z m 0,0"
           id="path3745" />
        <path
           style="fill:#ffdf59"
           inkscape:connector-curvature="0"
           d="m 95.769531,233.10937 v 30.8086 H 93.4375 c -35.605469,0 -64.464844,-28.85938 -64.464844,-64.46094 v -30.80859 h 2.335938 c 35.601562,0 64.460937,28.85937 64.460937,64.46093 z m 0,0"
           id="path3747" />
        <path
           style="fill:#ed9a00"
           inkscape:connector-curvature="0"
           d="m 95.769531,317.42578 v 30.80859 H 64.960938 C 29.359375,348.23437 0.5,319.375 0.5,283.77344 v -30.8086 h 30.808594 c 35.601562,0 64.460937,28.85938 64.460937,64.46094 z m 0,0"
           id="path3749" />
        <path
           style="fill:#ffdf59"
           inkscape:connector-curvature="0"
           d="m 95.769531,317.42578 v 30.80859 H 93.4375 c -35.605469,0 -64.464844,-28.85937 -64.464844,-64.46093 v -30.8086 h 2.335938 c 35.601562,0 64.460937,28.85938 64.460937,64.46094 z m 0,0"
           id="path3751" />
        <path
           style="fill:#ed9a00"
           inkscape:connector-curvature="0"
           d="m 191.03906,252.96484 v 30.8086 c 0,35.60547 -28.85937,64.46093 -64.46093,64.46093 H 95.769531 v -30.80859 c 0,-35.60156 28.859379,-64.46094 64.464839,-64.46094 z m 0,0"
           id="path3753" />
        <path
           style="fill:#ffdf59"
           inkscape:connector-curvature="0"
           d="m 191.03906,252.96484 v 30.8086 c 0,35.60547 -28.85937,64.46093 -64.46093,64.46093 h -1.23829 v -30.80859 c 0,-35.60156 28.85938,-64.46094 64.46485,-64.46094 z m 0,0"
           id="path3755" />
        <g
           style="fill:#ed9a00"
           id="g3763">
          <path
             inkscape:connector-curvature="0"
             d="m 306.03516,148.78906 h 59.54687 v 169.30469 h -59.54687 z m 0,0"
             id="path3757" />
          <path
             inkscape:connector-curvature="0"
             d="m 336.01172,512 c -4.53516,0 -8.21485,-3.67578 -8.21485,-8.21484 V 348.23828 c 0,-4.53515 3.67969,-8.21484 8.21485,-8.21484 4.53515,0 8.21484,3.67969 8.21484,8.21484 V 503.78516 C 344.22266,508.32422 340.54687,512 336.01172,512 Z m 0,0"
             id="path3759" />
          <path
             inkscape:connector-curvature="0"
             d="m 431.28125,84.320312 v 30.808598 c 0,35.60546 -28.85938,64.46093 -64.46484,64.46093 h -30.80469 v -30.80468 c 0,-35.60547 28.85547,-64.464848 64.46094,-64.464848 z m 0,0"
             id="path3761" />
        </g>
        <path
           style="fill:#ffdf59"
           inkscape:connector-curvature="0"
           d="m 431.28125,84.320312 v 30.808598 c 0,35.60546 -28.85938,64.46093 -64.46484,64.46093 h -1.23438 v -30.80468 c 0,-35.60547 28.85547,-64.464848 64.46094,-64.464848 z m 0,0"
           id="path3765" />
        <path
           style="fill:#ed9a00"
           inkscape:connector-curvature="0"
           d="m 336.01172,148.78906 v 30.8086 h -30.8086 c -35.60546,0 -64.46093,-28.85938 -64.46093,-64.46485 V 84.328125 h 30.80468 c 35.60547,0 64.46485,28.859375 64.46485,64.460935 z m 0,0"
           id="path3767" />
        <path
           style="fill:#ffdf59"
           inkscape:connector-curvature="0"
           d="m 336.01172,148.78906 v 30.8086 h -2.33594 c -35.60547,0 -64.46094,-28.85938 -64.46094,-64.46485 V 84.328125 h 2.33203 c 35.60547,0 64.46485,28.859375 64.46485,64.460935 z m 0,0"
           id="path3769" />
        <path
           style="fill:#ed9a00"
           inkscape:connector-curvature="0"
           d="m 431.28125,168.64062 v 30.8086 c 0,35.60547 -28.85938,64.46094 -64.46484,64.46094 h -30.80469 v -30.80469 c 0,-35.60547 28.85547,-64.46484 64.46094,-64.46484 z m 0,0"
           id="path3771" />
        <path
           style="fill:#ffdf59"
           inkscape:connector-curvature="0"
           d="m 431.28125,168.64062 v 30.8086 c 0,35.60547 -28.85938,64.46094 -64.46484,64.46094 h -1.23438 v -30.80469 c 0,-35.60547 28.85547,-64.46484 64.46094,-64.46484 z m 0,0"
           id="path3773" />
        <path
           style="fill:#ed9a00"
           inkscape:connector-curvature="0"
           d="m 336.01172,233.10937 v 30.8086 h -30.8086 c -35.60546,0 -64.46093,-28.85938 -64.46093,-64.46094 v -30.80859 h 30.80468 c 35.60547,0 64.46485,28.85937 64.46485,64.46093 z m 0,0"
           id="path3775" />
        <path
           style="fill:#ffdf59"
           inkscape:connector-curvature="0"
           d="m 336.01172,233.10937 v 30.8086 h -2.33594 c -35.60547,0 -64.46094,-28.85938 -64.46094,-64.46094 v -30.80859 h 2.33203 c 35.60547,0 64.46485,28.85937 64.46485,64.46093 z m 0,0"
           id="path3777" />
        <path
           style="fill:#ed9a00"
           inkscape:connector-curvature="0"
           d="m 336.01172,317.42578 v 30.80859 h -30.8086 c -35.60546,0 -64.46093,-28.85937 -64.46093,-64.46093 v -30.8086 h 30.80468 c 35.60547,0 64.46485,28.85938 64.46485,64.46094 z m 0,0"
           id="path3779" />
        <path
           style="fill:#ffdf59"
           inkscape:connector-curvature="0"
           d="m 336.01172,317.42578 v 30.80859 h -2.33594 c -35.60547,0 -64.46094,-28.85937 -64.46094,-64.46093 v -30.8086 h 2.33203 c 35.60547,0 64.46485,28.85938 64.46485,64.46094 z m 0,0"
           id="path3781" />
        <path
           style="fill:#ed9a00"
           inkscape:connector-curvature="0"
           d="m 431.28125,252.96484 v 30.8086 c 0,35.60547 -28.85938,64.46093 -64.46484,64.46093 h -30.80469 v -30.80859 c 0,-35.60156 28.85547,-64.46094 64.46094,-64.46094 z m 0,0"
           id="path3783" />
        <path
           style="fill:#ffdf59"
           inkscape:connector-curvature="0"
           d="m 431.28125,252.96484 v 30.8086 c 0,35.60547 -28.85938,64.46093 -64.46484,64.46093 h -1.23438 v -30.80859 c 0,-35.60156 28.85547,-64.46094 64.46094,-64.46094 z m 0,0"
           id="path3785" />
      </g>
    </g>
    <g
       aria-label="404"
       transform="scale(1.0062916,0.99374773)"
       style="font-style:normal;font-weight:normal;font-size:10.51716232px;line-height:1.25;font-family:sans-serif;letter-spacing:0px;word-spacing:0px;fill:#000000;fill-opacity:1;stroke:none;stroke-width:0.26292908"
       id="text3832">
      <path
         d="m 85.631485,239.82447 h -2.028472 v 4.20026 h -1.785938 v -4.20026 h -7.430382 v -1.1796 L 81.4202,228.21588 h 2.182813 v 10.14236 h 2.028472 z m -3.81441,-1.46623 v -6.83507 q 0,-0.7276 0.0441,-1.6316 h -0.0441 q -0.15434,0.39688 -0.606336,1.21268 l -4.861719,7.25399 z"
         style="font-style:normal;font-variant:normal;font-weight:normal;font-stretch:normal;font-size:22.57777786px;font-family:'Segoe UI';-inkscape-font-specification:'Segoe UI';stroke-width:0.26292908"
         id="path3901" />
      <path
         d="m 92.334263,244.28932 q -2.348177,0 -3.671094,-2.01745 -1.311892,-2.01745 -1.311892,-5.83186 0,-4.18923 1.367014,-6.33897 1.378038,-2.14974 3.96875,-2.14974 4.960938,0 4.960938,8.10286 0,4.01285 -1.400087,6.12952 -1.400087,2.10564 -3.913629,2.10564 z m 0.253559,-14.80564 q -3.384462,0 -3.384462,6.86814 0,6.41614 3.318316,6.41614 3.274219,0 3.274219,-6.52639 0,-6.75789 -3.208073,-6.75789 z"
         style="font-style:normal;font-variant:normal;font-weight:normal;font-stretch:normal;font-size:22.57777786px;font-family:'Segoe UI';-inkscape-font-specification:'Segoe UI';stroke-width:0.26292908"
         id="path3903" />
      <path
         d="m 109.97315,239.82447 h -2.02847 v 4.20026 h -1.78594 v -4.20026 h -7.430379 v -1.1796 l 7.033509,-10.42899 h 2.18281 v 10.14236 h 2.02847 z m -3.81441,-1.46623 v -6.83507 q 0,-0.7276 0.0441,-1.6316 h -0.0441 q -0.15434,0.39688 -0.60633,1.21268 l -4.86172,7.25399 z"
         style="font-style:normal;font-variant:normal;font-weight:normal;font-stretch:normal;font-size:22.57777786px;font-family:'Segoe UI';-inkscape-font-specification:'Segoe UI';stroke-width:0.26292908"
         id="path3905" />
    </g>
    <g
       aria-label="Семена не проросли"
       style="font-style:normal;font-variant:normal;font-weight:normal;font-stretch:normal;font-size:10.58333302px;line-height:1.25;font-family:'Segoe UI';-inkscape-font-specification:'Segoe UI';letter-spacing:0px;word-spacing:0px;fill:#000000;fill-opacity:1;stroke:none;stroke-width:0.26458332"
       id="text3836">
      <path
         d="m 81.023428,254.34422 q -0.657324,0.34727 -1.637109,0.34727 -1.265039,0 -2.025716,-0.81442 -0.760677,-0.81442 -0.760677,-2.13734 0,-1.42213 0.855761,-2.29857 0.855762,-0.87643 2.17041,-0.87643 0.84336,0 1.397331,0.24391 v 0.74001 q -0.636654,-0.35553 -1.405599,-0.35553 -1.021126,0 -1.65778,0.68213 -0.632519,0.68212 -0.632519,1.82314 0,1.08314 0.591178,1.72806 0.595313,0.64079 1.558561,0.64079 0.892969,0 1.546159,-0.39688 z"
         style="font-size:8.46666622px;stroke-width:0.26458332"
         id="path3908" />
      <path
         d="M 85.542015,252.6451 H 82.55305 q 0.01654,0.70694 0.380339,1.09141 0.363802,0.38447 1.000455,0.38447 0.715202,0 1.314649,-0.47129 v 0.63666 q -0.558106,0.40514 -1.475879,0.40514 -0.897103,0 -1.409733,-0.57464 -0.51263,-0.57878 -0.51263,-1.62471 0,-0.98805 0.558105,-1.60817 0.56224,-0.62425 1.393197,-0.62425 0.830957,0 1.285709,0.53743 0.454753,0.53744 0.454753,1.49242 z m -0.694531,-0.57464 q -0.0041,-0.58704 -0.285254,-0.91364 -0.276986,-0.32659 -0.77308,-0.32659 -0.479557,0 -0.81442,0.34313 -0.334863,0.34313 -0.413412,0.8971 z"
         style="font-size:8.46666622px;stroke-width:0.26458332"
         id="path3910" />
      <path
         d="m 91.143741,254.59227 h -0.669727 v -3.48919 q -0.09095,0.26458 -0.28112,0.77721 l -1.058333,2.71198 h -0.607715 l -1.091406,-2.71198 q -0.08682,-0.21911 -0.28112,-0.77721 v 3.48919 h -0.58291 v -4.23333 h 0.86403 l 1.116211,2.76159 q 0.119889,0.30179 0.305924,0.83509 l 0.301791,-0.81856 1.083138,-2.77812 h 0.901237 z"
         style="font-size:8.46666622px;stroke-width:0.26458332"
         id="path3912" />
      <path
         d="m 95.92691,252.6451 h -2.988964 q 0.01654,0.70694 0.380338,1.09141 0.363802,0.38447 1.000456,0.38447 0.715202,0 1.314648,-0.47129 v 0.63666 q -0.558105,0.40514 -1.475879,0.40514 -0.897103,0 -1.409733,-0.57464 -0.51263,-0.57878 -0.51263,-1.62471 0,-0.98805 0.558106,-1.60817 0.562239,-0.62425 1.393196,-0.62425 0.830957,0 1.28571,0.53743 0.454752,0.53744 0.454752,1.49242 z m -0.694531,-0.57464 q -0.0041,-0.58704 -0.285254,-0.91364 -0.276986,-0.32659 -0.773079,-0.32659 -0.479558,0 -0.814421,0.34313 -0.334863,0.34313 -0.413411,0.8971 z"
         style="font-size:8.46666622px;stroke-width:0.26458332"
         id="path3914" />
      <path
         d="m 100.4703,254.59227 h -0.677992 v -1.92236 H 97.6343 v 1.92236 h -0.677995 v -4.23333 H 97.6343 v 1.73632 h 2.158008 v -1.73632 h 0.677992 z"
         style="font-size:8.46666622px;stroke-width:0.26458332"
         id="path3916" />
      <path
         d="m 104.8814,254.59227 h -0.67799 v -0.66146 h -0.0165 q -0.44235,0.76068 -1.30225,0.76068 -0.63251,0 -0.99218,-0.33486 -0.35554,-0.33487 -0.35554,-0.88884 0,-1.18649 1.39733,-1.38079 l 1.26918,-0.17777 q 0,-1.079 -0.8723,-1.079 -0.76481,0 -1.3808,0.52089 v -0.69453 q 0.62426,-0.39687 1.43868,-0.39687 1.49241,0 1.49241,1.57923 z m -0.67799,-2.14147 -1.02113,0.14056 q -0.47129,0.0661 -0.71107,0.23564 -0.23978,0.16537 -0.23978,0.59118 0,0.31006 0.21911,0.5085 0.22324,0.1943 0.59118,0.1943 0.50436,0 0.83096,-0.3514 0.33073,-0.35553 0.33073,-0.8971 z"
         style="font-size:8.46666622px;stroke-width:0.26458332"
         id="path3918" />
      <path
         d="m 111.99621,254.59227 h -0.67799 v -1.92236 h -2.15801 v 1.92236 h -0.678 v -4.23333 h 0.678 v 1.73632 h 2.15801 v -1.73632 h 0.67799 z"
         style="font-size:8.46666622px;stroke-width:0.26458332"
         id="path3920" />
      <path
         d="m 116.77938,252.6451 h -2.98896 q 0.0165,0.70694 0.38034,1.09141 0.3638,0.38447 1.00045,0.38447 0.7152,0 1.31465,-0.47129 v 0.63666 q -0.55811,0.40514 -1.47588,0.40514 -0.8971,0 -1.40973,-0.57464 -0.51263,-0.57878 -0.51263,-1.62471 0,-0.98805 0.5581,-1.60817 0.56224,-0.62425 1.3932,-0.62425 0.83096,0 1.28571,0.53743 0.45475,0.53744 0.45475,1.49242 z m -0.69453,-0.57464 q -0.004,-0.58704 -0.28525,-0.91364 -0.27699,-0.32659 -0.77308,-0.32659 -0.47956,0 -0.81442,0.34313 -0.33487,0.34313 -0.41341,0.8971 z"
         style="font-size:8.46666622px;stroke-width:0.26458332"
         id="path3922" />
      <path
         d="m 123.63788,254.59227 h -0.678 v -3.65456 h -2.158 v 3.65456 h -0.678 v -4.23333 h 3.514 z"
         style="font-size:8.46666622px;stroke-width:0.26458332"
         id="path3924" />
      <path
         d="m 125.71321,253.98042 h -0.0165 v 2.55902 h -0.67799 v -6.1805 h 0.67799 v 0.74414 h 0.0165 q 0.50022,-0.84336 1.46347,-0.84336 0.81856,0 1.27744,0.57051 0.45889,0.56637 0.45889,1.52135 0,1.06247 -0.51676,1.70326 -0.51677,0.63665 -1.41387,0.63665 -0.82269,0 -1.26917,-0.71107 z m -0.0165,-1.70739 v 0.59118 q 0,0.52503 0.339,0.89297 0.34313,0.3638 0.86816,0.3638 0.61598,0 0.96325,-0.47129 0.3514,-0.47129 0.3514,-1.31051 0,-0.70694 -0.32659,-1.10795 -0.3266,-0.401 -0.88471,-0.401 -0.59117,0 -0.95084,0.41341 -0.35967,0.40927 -0.35967,1.02939 z"
         style="font-size:8.46666622px;stroke-width:0.26458332"
         id="path3926" />
      <path
         d="m 131.76555,254.69149 q -0.93845,0 -1.50069,-0.59118 -0.5581,-0.59531 -0.5581,-1.5751 0,-1.0666 0.58291,-1.66605 0.58291,-0.59944 1.5751,-0.59944 0.94671,0 1.47587,0.58291 0.53331,0.58291 0.53331,1.61644 0,1.01285 -0.57465,1.6247 -0.5705,0.60772 -1.53375,0.60772 z m 0.0496,-3.86126 q -0.65319,0 -1.03353,0.44648 -0.38034,0.44235 -0.38034,1.2237 0,0.75241 0.38447,1.18649 0.38447,0.43408 1.0294,0.43408 0.65732,0 1.00872,-0.42581 0.35553,-0.42582 0.35553,-1.2113 0,-0.79375 -0.35553,-1.2237 -0.3514,-0.42994 -1.00872,-0.42994 z"
         style="font-size:8.46666622px;stroke-width:0.26458332"
         id="path3928" />
      <path
         d="m 135.65161,253.98042 h -0.0165 v 2.55902 h -0.678 v -6.1805 h 0.678 v 0.74414 h 0.0165 q 0.50023,-0.84336 1.46348,-0.84336 0.81856,0 1.27744,0.57051 0.45889,0.56637 0.45889,1.52135 0,1.06247 -0.51676,1.70326 -0.51677,0.63665 -1.41387,0.63665 -0.82269,0 -1.26918,-0.71107 z m -0.0165,-1.70739 v 0.59118 q 0,0.52503 0.339,0.89297 0.34313,0.3638 0.86816,0.3638 0.61598,0 0.96325,-0.47129 0.3514,-0.47129 0.3514,-1.31051 0,-0.70694 -0.3266,-1.10795 -0.32659,-0.401 -0.8847,-0.401 -0.59118,0 -0.95084,0.41341 -0.35967,0.40927 -0.35967,1.02939 z"
         style="font-size:8.46666622px;stroke-width:0.26458332"
         id="path3930" />
      <path
         d="m 141.70396,254.69149 q -0.93845,0 -1.50068,-0.59118 -0.55811,-0.59531 -0.55811,-1.5751 0,-1.0666 0.58291,-1.66605 0.58291,-0.59944 1.5751,-0.59944 0.94671,0 1.47588,0.58291 0.5333,0.58291 0.5333,1.61644 0,1.01285 -0.57464,1.6247 -0.57051,0.60772 -1.53376,0.60772 z m 0.0496,-3.86126 q -0.65319,0 -1.03353,0.44648 -0.38034,0.44235 -0.38034,1.2237 0,0.75241 0.38447,1.18649 0.38448,0.43408 1.0294,0.43408 0.65732,0 1.00872,-0.42581 0.35554,-0.42582 0.35554,-1.2113 0,-0.79375 -0.35554,-1.2237 -0.3514,-0.42994 -1.00872,-0.42994 z"
         style="font-size:8.46666622px;stroke-width:0.26458332"
         id="path3932" />
      <path
         d="m 147.7811,254.39797 q -0.48782,0.29352 -1.15755,0.29352 -0.90537,0 -1.46348,-0.58705 -0.55397,-0.59117 -0.55397,-1.52962 0,-1.04593 0.59945,-1.67845 0.59945,-0.63665 1.5999,-0.63665 0.55811,0 0.98392,0.2067 v 0.69453 q -0.47129,-0.33072 -1.00872,-0.33072 -0.64906,0 -1.0666,0.46715 -0.41342,0.46302 -0.41342,1.21956 0,0.74415 0.38861,1.17409 0.39274,0.42995 1.05007,0.42995 0.55397,0 1.04179,-0.36794 z"
         style="font-size:8.46666622px;stroke-width:0.26458332"
         id="path3934" />
      <path
         d="m 151.90282,254.59227 h -0.67386 v -3.65869 h -0.98392 q -0.1695,2.05465 -0.58291,2.88561 -0.40928,0.83096 -1.10381,0.83096 -0.21084,0 -0.3638,-0.0579 v -0.58291 q 0.14469,0.0744 0.31419,0.0744 0.90951,0 1.16996,-3.72483 h 2.22415 z"
         style="font-size:8.46666622px;stroke-width:0.26458332"
         id="path3936" />
      <path
         d="m 156.82655,254.59227 h -0.61185 v -3.37757 q -0.0909,0.17777 -0.27699,0.50023 l -1.95543,2.87734 h -0.7028 v -4.23333 h 0.62012 v 3.33623 q 0.0496,-0.11989 0.21497,-0.40928 l 2.00918,-2.92695 h 0.7028 z"
         style="font-size:8.46666622px;stroke-width:0.26458332"
         id="path3938" />
    </g>
  </g>
</svg>
